<svg class="write-page" width="8.042px" height="361.926px" xmlns="http://www.w3.org/2000/svg" xmlns:xlink="http://www.w3.org/1999/xlink">
  <g class="write-content write-v3" width="8.042" height="361.926" xruling="0" yruling="0" marginLeft="0" papercolor="#FFFFFF" rulecolor="#FF0000FF">
    <g class="ruleline write-std-ruling write-scale-down" fill="none" stroke="#0000FF" stroke-width="1" shape-rendering="crispEdges" vector-effect="non-scaling-stroke">
      <rect class="pagerect" fill="#FFFFFF" stroke="none" x="0" y="0" width="8.042" height="361.926" />
    </g>
    <svg id="x-gAd1lRpjsl" transform="matrix(0.677 0 0 0.677 3 16)" xmlns:dc="http://purl.org/dc/elements/1.1/" xmlns:cc="http://creativecommons.org/ns#" xmlns:rdf="http://www.w3.org/1999/02/22-rdf-syntax-ns#" xmlns:svg="http://www.w3.org/2000/svg" xmlns:sodipodi="http://sodipodi.sourceforge.net/DTD/sodipodi-0.dtd" xmlns:inkscape="http://www.inkscape.org/namespaces/inkscape" version="1.1" inkscape:version="1.0.1 (1.0.1+r73)" __timestamp="0x1759f67da37" width="3.019pt" height="487.688pt" viewBox="0 0 1.065 172.045">
      <defs id="x-rswnNEKBQK" />
      <sodipodi:namedview id="base" pagecolor="#ffffff" bordercolor="#666666" borderopacity="1.0" inkscape:pageopacity="0.0" inkscape:pageshadow="2" inkscape:zoom="0.36" inkscape:cx="-639.71246" inkscape:cy="360.36789" inkscape:document-units="mm" inkscape:current-layer="layer1" inkscape:document-rotation="0" showgrid="false" fit-margin-top="0" fit-margin-left="0" fit-margin-right="0" fit-margin-bottom="0" inkscape:window-width="1294" inkscape:window-height="704" inkscape:window-x="72" inkscape:window-y="27" inkscape:window-maximized="1" />
      <metadata id="metadata5">
        <rdf:RDF>
          <cc:Work rdf:about="">
            <dc:format>image/svg+xml</dc:format>
            <dc:type rdf:resource="http://purl.org/dc/dcmitype/StillImage" />
            <dc:title />
          </cc:Work>
        </rdf:RDF>
      </metadata>
      <g id="x-Q5p2UYCn1U" transform="translate(-96.864,-52.798)" inkscape:label="Livello 1" inkscape:groupmode="layer">
        <path id="x-cA2aH77dOo" style="fill:#000000;fill-opacity:1;fill-rule:nonzero;stroke:none;stroke-width:0;" d="M97.542 114.719 l-0.005 0.002 c0.001 0.01 0.001 0.02 0.001 0.03 0 0.006 0 0.012 0 0.018 0 0.001 0 0.002 0 0.004 0 0.001 0 0.001 0 0.001 0 0.002 0 0.004 0 0.006 0 0.002 0 0.004 0 0.007 0 0.002 0 0.004 0 0.006 0 0.002 0 0.003 0 0.005 l0.005 -0.003 c0 -0.001 0 -0.003 0 -0.005 0 -0.002 0 -0.004 0 -0.006 0 -0.002 0 -0.005 0 -0.007 0 -0.002 0 -0.004 0 -0.006 0 -0.001 0 -0.001 0 -0.002 0 -0.001 0 -0.002 0 -0.004 0 -0.006 0 -0.011 0 -0.017 0 -0.01 0 -0.021 0.001 -0.031 l0 0.002" />
        <path id="x-x9wJGNHZEs" style="fill:none;stroke:#000000;stroke-width:1.065;stroke-linecap:butt;stroke-linejoin:miter;stroke-miterlimit:4;stroke-dasharray:-1;stroke-opacity:1;" d="M97.397 52.798 c0 172.046 0 172.046 0 172.046" />
      </g>
    </svg>
  </g>
</svg>
